# Blender 3.3.1
# www.blender.org
mtllib old_computer_noscreen.mtl
o button
v -0.234375 0.296875 -0.242187
v -0.234375 0.296875 -0.257812
v -0.234375 0.265625 -0.242187
v -0.234375 0.265625 -0.257812
v -0.265625 0.296875 -0.242187
v -0.265625 0.296875 -0.257812
v -0.265625 0.265625 -0.242187
v -0.265625 0.265625 -0.257812
vn 1.0000 -0.0000 -0.0000
vn -1.0000 -0.0000 -0.0000
vn -0.0000 1.0000 -0.0000
vn -0.0000 -1.0000 -0.0000
vn -0.0000 -0.0000 1.0000
vn -0.0000 -0.0000 -1.0000
vt 0.468750 0.718750
vt 0.359375 0.484375
vt 0.046875 0.406250
vt 0.484375 0.718750
vt 0.359375 0.500000
vt 0.062500 0.406250
vt 0.468750 0.703125
vt 0.015625 0.406250
vt 0.046875 0.390625
vt 0.484375 0.703125
vt 0.015625 0.390625
vt 0.062500 0.390625
vt 0.359375 0.531250
vt 0.343750 0.484375
vt 0.031250 0.406250
vt 0.343750 0.531250
vt 0.343750 0.500000
vt 0.078125 0.406250
vt 0.359375 0.515625
vt 0.000000 0.406250
vt 0.031250 0.390625
vt 0.343750 0.515625
vt 0.000000 0.390625
vt 0.078125 0.390625
s 0
usemtl m_863abdbe-17dd-361b-af02-1bf42b9f21e5
f 2/4/1 1/1/1 3/7/1 4/10/1
f 7/19/2 5/13/2 6/16/2 8/22/2
f 5/14/3 1/2/3 2/5/3 6/17/3
f 4/11/4 3/8/4 7/20/4 8/23/4
f 3/9/5 1/3/5 5/15/5 7/21/5
f 6/18/6 2/6/6 4/12/6 8/24/6
o button.001
v -0.359375 0.234375 -0.304687
v -0.359375 0.234375 -0.320312
v -0.359375 0.203125 -0.304687
v -0.359375 0.203125 -0.320312
v -0.390625 0.234375 -0.304687
v -0.390625 0.234375 -0.320312
v -0.390625 0.203125 -0.304687
v -0.390625 0.203125 -0.320312
vn 1.0000 -0.0000 -0.0000
vn -1.0000 -0.0000 -0.0000
vn -0.0000 1.0000 -0.0000
vn -0.0000 -1.0000 -0.0000
vn -0.0000 -0.0000 1.0000
vn -0.0000 -0.0000 -1.0000
vt 0.609375 0.609375
vt 0.046875 0.359375
vt 0.359375 0.375000
vt 0.625000 0.609375
vt 0.046875 0.375000
vt 0.375000 0.375000
vt 0.609375 0.593750
vt 0.078125 0.375000
vt 0.359375 0.359375
vt 0.625000 0.593750
vt 0.078125 0.359375
vt 0.375000 0.359375
vt 0.015625 0.375000
vt 0.031250 0.359375
vt 0.343750 0.375000
vt 0.000000 0.375000
vt 0.031250 0.375000
vt 0.390625 0.375000
vt 0.015625 0.359375
vt 0.062500 0.375000
vt 0.343750 0.359375
vt 0.000000 0.359375
vt 0.062500 0.359375
vt 0.390625 0.359375
s 0
usemtl m_863abdbe-17dd-361b-af02-1bf42b9f21e5
f 10/28/7 9/25/7 11/31/7 12/34/7
f 15/43/8 13/37/8 14/40/8 16/46/8
f 13/38/9 9/26/9 10/29/9 14/41/9
f 12/35/10 11/32/10 15/44/10 16/47/10
f 11/33/11 9/27/11 13/39/11 15/45/11
f 14/42/12 10/30/12 12/36/12 16/48/12
o keyboard
v 0.406250 0.046875 -0.375000
v 0.406250 0.026042 -0.625000
v 0.406250 -0.015625 -0.375000
v 0.406250 -0.015625 -0.625000
v -0.156250 0.046875 -0.375000
v -0.156250 0.026042 -0.625000
v -0.156250 -0.015625 -0.375000
v -0.156250 -0.015625 -0.625000
vn 1.0000 -0.0000 -0.0000
vn -1.0000 -0.0000 -0.0000
vn -0.0000 0.9965 -0.0830
vn -0.0000 -1.0000 -0.0000
vn -0.0000 -0.0000 1.0000
vn -0.0000 -0.0000 -1.0000
vt 0.312500 0.937500
vt 0.000000 0.843750
vt 0.281250 0.687500
vt 0.437500 0.927084
vt 0.000000 0.718750
vt 0.312500 1.000000
vt 0.312500 0.906250
vt 0.281250 1.000000
vt 0.281250 0.656250
vt 0.437500 0.906250
vt 0.281250 0.875000
vt 0.312500 0.968750
vt 0.437500 0.875000
vt 0.281250 0.843750
vt 0.000000 0.687500
vt 0.312500 0.864584
vt 0.281250 0.718750
vt 0.593750 1.000000
vt 0.437500 0.843750
vt 0.000000 1.000000
vt 0.000000 0.656250
vt 0.312500 0.843750
vt 0.000000 0.875000
vt 0.593750 0.968750
s 0
usemtl m_c97041ec-4c6f-5895-d137-1d514365c306
f 18/52/13 17/49/13 19/55/13 20/58/13
f 23/67/14 21/61/14 22/64/14 24/70/14
f 21/62/15 17/50/15 18/53/15 22/65/15
f 20/59/16 19/56/16 23/68/16 24/71/16
f 19/57/17 17/51/17 21/63/17 23/69/17
f 22/66/18 18/54/18 20/60/18 24/72/18
o monitor
v 0.250000 0.812500 -0.250000
v 0.250000 0.375000 0.375000
v 0.250000 0.312500 -0.250000
v -0.250000 0.812500 -0.250000
v -0.250000 0.375000 0.375000
v -0.250000 0.312500 -0.250000
v 0.250000 0.687500 0.375000
v -0.250000 0.687500 0.375000
v -0.312500 0.250000 -0.250000
v -0.312500 0.875000 -0.125000
v -0.312500 0.250000 -0.125000
v -0.312500 0.875000 -0.250000
v 0.312500 0.875000 -0.125000
v 0.312500 0.875000 -0.250000
v 0.312500 0.250000 -0.250000
v 0.312500 0.250000 -0.125000
v 0.250000 0.812500 -0.062500
v -0.250000 0.812500 -0.062500
v -0.250000 0.312500 -0.062500
v 0.250000 0.312500 -0.062500
v 0.250000 0.812500 -0.187500
v 0.250000 0.312500 -0.187500
v -0.250000 0.812500 -0.187500
v -0.250000 0.312500 -0.187500
vn 1.0000 -0.0000 -0.0000
vn -0.0000 1.0000 -0.0000
vn -0.0000 -0.0000 1.0000
vn -1.0000 -0.0000 -0.0000
vn -0.0000 -0.0000 -1.0000
vn -0.0000 0.9615 0.2747
vn -0.0000 0.7071 0.7071
vn -0.7071 -0.0000 0.7071
vn 0.7071 -0.0000 0.7071
vn -0.0000 -0.9899 0.1414
vn -0.0000 -0.7071 0.7071
vn -0.0000 -1.0000 -0.0000
vt 0.250000 0.984375
vt 0.640625 0.390625
vt 0.218750 0.453125
vt 0.500000 0.468750
vt 0.375000 0.578125
vt 0.531250 1.000000
vt 0.250000 0.859375
vt 0.218750 0.328125
vt 0.734375 0.640625
vt 0.375000 0.984375
vt 0.515625 0.390625
vt 0.265625 0.453125
vt 0.375000 0.468750
vt 0.109375 0.546875
vt 0.406250 1.000000
vt 0.375000 0.859375
vt 0.609375 0.640625
vt 0.265625 0.328125
vt 0.500000 0.546875
vt 0.375000 0.692277
vt 0.375000 0.656250
vt 0.375000 0.546875
vt 0.250000 0.692277
vt 0.109375 0.625000
vt 0.109375 0.296875
vt 0.390625 0.843750
vt 0.343750 0.421875
vt 0.546875 0.890625
vt 0.140625 0.453125
vt 0.234375 0.828125
vt 0.156250 0.453125
vt 0.140625 0.296875
vt 0.156250 0.296875
vt 0.343750 0.390625
vt 0.343750 0.453125
vt 0.546875 0.921875
vt 0.109375 0.453125
vt 0.390625 1.000000
vt 0.296875 0.531250
vt 0.703125 0.890625
vt 0.390625 0.828125
vt 0.203125 0.453125
vt 0.328125 0.531250
vt 0.703125 0.921875
vt 0.234375 1.000000
vt 0.328125 0.375000
vt 0.234375 0.843750
vt 0.500000 0.421875
vt 0.296875 0.375000
vt 0.203125 0.296875
vt 0.500000 0.390625
vt 0.500000 0.453125
vt 0.484375 0.687500
vt 0.375000 0.806028
vt 0.187500 0.437500
vt 0.000000 0.656250
vt 0.250000 0.806028
vt 0.171875 0.437500
vt 0.000000 0.531250
vt 0.171875 0.312500
vt 0.406250 0.890625
vt 0.359375 0.406250
vt 0.484375 0.562500
vt 0.187500 0.312500
vt 0.531250 0.890625
vt 0.484375 0.406250
vt 0.640625 0.406250
vt 0.234375 0.453125
vt 0.234375 0.328125
vt 0.734375 0.625000
vt 0.515625 0.406250
vt 0.250000 0.453125
vt 0.609375 0.625000
vt 0.250000 0.328125
s 0
usemtl m_863abdbe-17dd-361b-af02-1bf42b9f21e5
f 38/115/19 37/111/19 40/121/19 39/118/19
f 36/108/20 34/100/20 37/112/20 38/116/20
f 26/76/21 31/91/21 32/94/21 29/85/21
f 33/97/22 35/104/22 34/101/22 36/109/22
f 33/98/23 36/110/23 28/82/23 30/88/23
f 36/110/23 38/117/23 25/73/23 28/82/23
f 39/119/23 33/98/23 30/88/23 27/79/23
f 38/117/23 39/119/23 27/79/23 25/73/23
f 31/92/24 41/126/24 42/129/24 32/95/24
f 32/96/22 42/128/22 43/131/22 29/86/22
f 26/77/19 44/135/19 41/125/19 31/93/19
f 41/126/25 37/113/25 34/102/25 42/129/25
f 35/105/26 43/132/26 42/130/26 34/103/26
f 44/136/27 40/122/27 37/114/27 41/127/27
f 29/87/28 43/133/28 44/137/28 26/78/28
f 35/106/29 40/123/29 44/138/29 43/134/29
f 45/139/30 47/143/30 28/83/30 25/74/30
f 46/141/22 45/140/22 25/75/22 27/80/22
f 48/145/20 46/142/20 27/81/20 30/89/20
f 47/144/19 48/146/19 30/90/19 28/84/19
f 35/107/30 33/99/30 39/120/30 40/124/30
o mouse
v -0.250000 0.000000 -0.406250
v -0.250000 0.000000 -0.593750
v -0.375000 0.000000 -0.406250
v -0.375000 0.000000 -0.593750
v -0.302083 0.062500 -0.406250
v -0.333333 0.062500 -0.593750
v -0.322917 0.062500 -0.406250
v -0.291667 0.062500 -0.593750
v -0.333333 0.000000 -0.593750
v -0.291667 0.000000 -0.593750
v -0.333333 0.000000 -0.406250
v -0.291667 0.000000 -0.406250
v -0.375000 0.062500 -0.468750
v -0.375000 0.000000 -0.468750
v -0.333333 0.000000 -0.468750
v -0.291667 0.000000 -0.468750
v -0.250000 0.000000 -0.468750
v -0.250000 0.062500 -0.468750
v -0.322917 0.062500 -0.468750
v -0.291667 0.041667 -0.406250
v -0.250000 0.041667 -0.406250
v -0.291667 0.020833 -0.406250
v -0.250000 0.020833 -0.406250
v -0.250000 0.041667 -0.468750
v -0.250000 0.020833 -0.468750
v -0.250000 0.041667 -0.593750
v -0.250000 0.020833 -0.593750
v -0.291667 0.041667 -0.593750
v -0.291667 0.020833 -0.593750
v -0.333333 0.041667 -0.593750
v -0.333333 0.020833 -0.593750
v -0.375000 0.041667 -0.593750
v -0.375000 0.020833 -0.593750
v -0.375000 0.041667 -0.468750
v -0.375000 0.020833 -0.468750
v -0.333333 0.041667 -0.406250
v -0.333333 0.020833 -0.406250
v -0.375000 0.041667 -0.406250
v -0.375000 0.020833 -0.406250
v -0.302083 0.062500 -0.468750
vn 1.0000 -0.0000 -0.0000
vn -0.0000 -1.0000 -0.0000
vn -0.0000 -0.0000 1.0000
vn -0.0000 -0.0000 -1.0000
vn -1.0000 -0.0000 -0.0000
vn -0.4423 0.8847 -0.1474
vn 0.4423 0.8847 -0.1474
vn -0.0000 1.0000 -0.0000
vn -0.0000 0.9487 0.3162
vn 0.8944 0.4472 -0.0000
vn -0.8944 0.4472 -0.0000
vt 0.562500 0.958331
vt 0.125000 1.000000
vt 0.187500 0.937500
vt 0.375000 0.937500
vt 0.125000 0.812500
vt 0.312500 0.812500
vt 0.437500 0.958331
vt 0.000000 1.000000
vt 0.187500 0.500000
vt 0.437500 0.812500
vt 0.000000 0.812500
vt 0.312500 0.687500
vt 0.450519 0.625000
vt 0.500000 0.875000
vt 0.346356 0.437500
vt 0.395831 0.875000
vt 0.049321 0.748369
vt 0.315106 0.625000
vt 0.471356 0.625000
vt 0.562500 0.750000
vt 0.325519 0.437500
vt 0.354169 0.875000
vt 0.200676 0.873367
vt 0.356769 0.625000
vt 0.395831 0.812500
vt 0.041669 0.812500
vt 0.354169 0.812500
vt 0.083331 0.812500
vt 0.479169 0.958331
vt 0.041669 1.000000
vt 0.520831 0.958331
vt 0.083331 1.000000
vt 0.437500 0.750000
vt 0.125000 0.562500
vt 0.007652 0.623369
vt 0.437500 0.687500
vt 0.000000 0.937500
vt 0.125000 0.500000
vt 0.041669 0.937500
vt 0.083331 0.937500
vt 0.125000 0.937500
vt 0.250000 0.937500
vt 0.250000 1.000000
vt 0.242345 0.748367
vt 0.500000 0.750000
vt 0.325519 0.500000
vt 0.059734 0.623369
vt 0.440106 0.562500
vt 0.520831 1.000000
vt 0.200676 0.682485
vt 0.500000 0.851706
vt 0.562500 1.000000
vt 0.187500 0.979169
vt 0.242345 0.682485
vt 0.520831 0.979163
vt 0.562500 0.979163
vt 0.187500 0.958331
vt 0.250000 0.979169
vt 0.250000 0.958331
vt 0.375000 0.979169
vt 0.312500 0.854169
vt 0.247236 0.875000
vt 0.375000 0.958331
vt 0.312500 0.833331
vt 0.354169 0.854169
vt 0.354169 0.833331
vt 0.395831 0.854169
vt 0.395831 0.833331
vt 0.437500 0.854169
vt 0.312500 0.729169
vt 0.002766 0.750000
vt 0.437500 0.833331
vt 0.312500 0.708331
vt 0.437500 0.729169
vt 0.437500 0.708331
vt 0.481769 0.562500
vt 0.479169 1.000000
vt 0.562500 0.726713
vt 0.049321 0.557487
vt 0.479169 0.979163
vt 0.437500 1.000000
vt 0.187500 0.541669
vt 0.007652 0.557487
vt 0.437500 0.979163
vt 0.190264 0.748367
vt 0.562500 0.875000
vt 0.346356 0.500000
s 0
usemtl m_d38cbe4a-723b-5192-2ef2-2b20e1d6e3bd
f 50/150/31 75/209/31 73/205/31 65/188/31
f 50/151/32 65/187/32 64/186/32 58/174/32
f 49/147/33 71/202/33 70/201/33 60/177/33
f 58/173/34 77/212/34 75/210/34 50/152/34
f 52/156/34 81/218/34 79/214/34 57/171/34
f 57/171/34 79/214/34 77/212/34 58/173/34
f 57/172/32 63/185/32 62/183/32 52/157/32
f 58/174/32 64/186/32 63/185/32 57/172/32
f 60/177/33 70/201/33 85/226/33 59/175/33
f 62/182/35 83/221/35 81/219/35 52/158/35
f 59/175/33 85/226/33 87/230/33 51/153/33
f 51/154/32 62/183/32 63/185/32 59/176/32
f 59/176/32 63/185/32 64/186/32 60/178/32
f 60/178/32 64/186/32 65/187/32 49/148/32
f 65/188/31 73/205/31 71/203/31 49/149/31
f 68/195/33 70/201/33 71/202/33 69/198/33
f 69/199/31 71/203/31 73/205/31 72/204/31
f 66/189/31 72/204/31 74/206/31
f 72/204/31 73/205/31 75/209/31 74/206/31
f 74/207/34 76/211/34 56/168/34
f 74/207/34 75/210/34 77/212/34 76/211/34
f 56/168/34 76/211/34 78/213/34 54/162/34
f 76/211/34 77/212/34 79/214/34 78/213/34
f 54/162/34 78/213/34 80/215/34
f 78/213/34 79/214/34 81/218/34 80/215/34
f 80/216/35 82/220/35 61/179/35
f 80/216/35 81/219/35 83/221/35 82/220/35
f 53/159/34 68/194/34 84/222/34 55/165/34
f 84/223/33 85/226/33 70/201/33 68/195/33
f 86/227/33 87/230/33 85/226/33 84/223/33
f 69/199/31 72/204/31 66/189/31
f 61/180/35 62/184/35 51/155/35 86/228/35
f 54/163/36 80/217/36 61/181/36
f 56/169/37 66/190/37 74/208/37
f 54/163/38 61/181/38 67/193/38
f 66/190/38 56/169/38 88/231/38
f 56/170/38 54/164/38 67/192/38 88/233/38
f 66/190/39 88/231/39 68/196/39 69/200/39
f 88/232/40 53/160/40 68/197/40
f 55/166/41 67/191/41 84/224/41
f 67/192/38 55/167/38 53/161/38 88/233/38
f 86/229/39 84/225/39 67/193/39 61/181/39
o neck
v 0.187500 0.437500 0.250000
v 0.187500 0.437500 -0.125000
v 0.187500 0.250000 0.250000
v 0.187500 0.250000 -0.125000
v -0.187500 0.437500 0.250000
v -0.187500 0.437500 -0.125000
v -0.187500 0.250000 0.250000
v -0.187500 0.250000 -0.125000
vn 1.0000 -0.0000 -0.0000
vn -1.0000 -0.0000 -0.0000
vn -0.0000 1.0000 -0.0000
vn -0.0000 -1.0000 -0.0000
vn -0.0000 -0.0000 1.0000
vn -0.0000 -0.0000 -1.0000
vt 0.500000 0.640625
vt 0.218750 0.562500
vt 0.609375 0.484375
vt 0.593750 0.640625
vt 0.218750 0.656250
vt 0.546875 1.000000
vt 0.500000 0.578125
vt 0.093750 0.515625
vt 0.609375 0.421875
vt 0.593750 0.578125
vt 0.093750 0.421875
vt 0.546875 0.937500
vt 0.609375 0.562500
vt 0.125000 0.562500
vt 0.515625 0.484375
vt 0.515625 0.562500
vt 0.125000 0.656250
vt 0.640625 1.000000
vt 0.609375 0.500000
vt 0.000000 0.515625
vt 0.515625 0.421875
vt 0.515625 0.500000
vt 0.000000 0.421875
vt 0.640625 0.937500
s 0
usemtl m_863abdbe-17dd-361b-af02-1bf42b9f21e5
f 90/237/42 89/234/42 91/240/42 92/243/42
f 95/252/43 93/246/43 94/249/43 96/255/43
f 93/247/44 89/235/44 90/238/44 94/250/44
f 92/244/45 91/241/45 95/253/45 96/256/45
f 91/242/46 89/236/46 93/248/46 95/254/46
f 94/251/47 90/239/47 92/245/47 96/257/47
o pc
v 0.437500 0.250000 0.312500
v 0.437500 0.250000 -0.312500
v 0.437500 -0.000000 0.312500
v 0.437500 0.000000 -0.312500
v -0.437500 0.250000 0.312500
v -0.437500 0.250000 -0.312500
v -0.437500 -0.000000 0.312500
v -0.437500 0.000000 -0.312500
v -0.162500 0.150000 -0.312500
v -0.162500 0.062500 -0.312500
v -0.400000 0.150000 -0.312500
v -0.400000 0.062500 -0.312500
v -0.162500 0.150000 -0.281250
v -0.162500 0.062500 -0.281250
v -0.400000 0.150000 -0.281250
v -0.400000 0.062500 -0.281250
vn 1.0000 -0.0000 -0.0000
vn -1.0000 -0.0000 -0.0000
vn -0.0000 1.0000 -0.0000
vn -0.0000 -1.0000 -0.0000
vn -0.0000 -0.0000 1.0000
vn -0.0000 -0.0000 -1.0000
vt 0.125000 0.531250
vt 0.218750 0.843750
vt 0.625000 0.875000
vt 0.281250 0.531250
vt 0.218750 1.000000
vt 0.406250 0.796875
vt 0.125000 0.468750
vt 0.218750 0.828125
vt 0.625000 0.812500
vt 0.281250 0.468750
vt 0.218750 0.671875
vt 0.406250 0.734375
vt 0.656250 0.718750
vt 0.000000 0.843750
vt 0.406250 0.875000
vt 0.500000 0.718750
vt 0.000000 1.000000
vt 0.625000 0.796875
vt 0.656250 0.656250
vt 0.000000 0.828125
vt 0.406250 0.812500
vt 0.500000 0.656250
vt 0.000000 0.671875
vt 0.625000 0.734375
vt 0.343750 0.906250
vt 0.406250 0.718750
vt 0.556250 0.771875
vt 0.406250 0.703125
vt 0.343750 0.890625
vt 0.556250 0.750000
vt 0.281250 0.906250
vt 0.453125 0.718750
vt 0.615625 0.771875
vt 0.615625 0.750000
vt 0.281250 0.890625
vt 0.453125 0.703125
vt 0.281250 0.953125
vt 0.343750 0.921875
vt 0.421875 0.718750
vt 0.281250 0.937500
vt 0.421875 0.703125
vt 0.343750 0.875000
vt 0.343750 0.953125
vt 0.281250 0.921875
vt 0.437500 0.718750
vt 0.343750 0.937500
vt 0.281250 0.875000
vt 0.437500 0.703125
s 0
usemtl m_863abdbe-17dd-361b-af02-1bf42b9f21e5
f 98/261/48 97/258/48 99/264/48 100/267/48
f 103/276/49 101/270/49 102/273/49 104/279/49
f 101/271/50 97/259/50 98/262/50 102/274/50
f 100/268/51 99/265/51 103/277/51 104/280/51
f 99/266/52 97/260/52 101/272/52 103/278/52
f 111/300/53 109/294/53 110/297/53 112/303/53
f 108/291/53 106/287/53 100/269/53 104/281/53
f 107/290/53 108/291/53 104/281/53 102/275/53
f 109/295/51 111/301/51 107/288/51 105/282/51
f 110/298/49 109/296/49 105/283/49 106/285/49
f 112/304/50 110/299/50 106/286/50 108/292/50
f 111/302/48 112/305/48 108/293/48 107/289/48
f 106/287/53 105/284/53 98/263/53 100/269/53
f 105/284/53 107/290/53 102/275/53 98/263/53
